<svg xmlns="http://www.w3.org/2000/svg" xmlns:xlink="http://www.w3.org/1999/xlink" width="225" height="225" viewBox="0 0 225 225"><defs><filter id="c" width="102.2%" height="102.2%" x="-1.1%" y="-1.1%" filterUnits="objectBoundingBox"><feGaussianBlur in="SourceAlpha" result="shadowBlurInner1" stdDeviation=".5"/><feOffset dy="1" in="shadowBlurInner1" result="shadowOffsetInner1"/><feComposite in="shadowOffsetInner1" in2="SourceAlpha" k2="-1" k3="1" operator="arithmetic" result="shadowInnerInner1"/><feColorMatrix in="shadowInnerInner1" values="0 0 0 0 0.832780599 0 0 0 0 0.948539402 0 0 0 0 0.625750431 0 0 0 1 0"/></filter><filter id="e" width="105.7%" height="105.7%" x="-2.9%" y="-2.9%" filterUnits="objectBoundingBox"><feGaussianBlur in="SourceAlpha" result="shadowBlurInner1" stdDeviation="1"/><feOffset dy="-2" in="shadowBlurInner1" result="shadowOffsetInner1"/><feComposite in="shadowOffsetInner1" in2="SourceAlpha" k2="-1" k3="1" operator="arithmetic" result="shadowInnerInner1"/><feColorMatrix in="shadowInnerInner1" values="0 0 0 0 0 0 0 0 0 0 0 0 0 0 0 0 0 0 0.25 0"/></filter><path id="b" d="M81.66 120.03a6.783 6.783 0 0 1 9.597 9.588L76.88 144.01a6.783 6.783 0 0 1-9.597-9.587L81.66 120.03ZM53.233 91.597a6.783 6.783 0 0 1 8.308-4.795l19.655 5.27a6.783 6.783 0 1 1-3.513 13.103l-19.655-5.27a6.783 6.783 0 0 1-4.795-8.308Zm81.188-24.324a6.783 6.783 0 0 1 9.593 9.592l-14.392 14.393a6.783 6.783 0 1 1-9.593-9.592l14.392-14.393ZM91.599 53.233a6.783 6.783 0 0 1 8.308 4.794l5.27 19.65a6.783 6.783 0 1 1-13.102 3.514l-5.27-19.65a6.783 6.783 0 0 1 4.794-8.308Z"/><path id="d" d="m140.783 152.27 17.23 17.23c1.784 1.784 2.676 2.676 3.67 3.088 1.328.55 2.818.55 4.146 0 .994-.412 1.887-1.304 3.67-3.089 1.785-1.783 2.677-2.676 3.089-3.67a5.416 5.416 0 0 0 0-4.145c-.412-.995-1.304-1.887-3.089-3.67l-17.23-17.231 5.263-5.262c5.386-5.386 8.079-8.08 7.443-10.974-.635-2.895-4.21-4.212-11.358-6.846l-23.84-8.783c-14.26-5.254-21.39-7.88-25.065-4.206-3.674 3.675-1.048 10.805 4.206 25.065l8.783 23.84c2.634 7.149 3.95 10.723 6.846 11.358 2.894.636 5.588-2.057 10.974-7.443l5.262-5.262Z"/><linearGradient id="a" x1="50%" x2="50%" y1="0%" y2="100%"><stop offset="0%" stop-color="#202D36"/><stop offset="100%" stop-color="#091219"/></linearGradient></defs><g fill="none" fill-rule="evenodd"><rect width="225" height="225" fill="url(#a)" rx="39"/><g fill-rule="nonzero"><use xlink:href="#b" fill="#A8DC4B"/><use xlink:href="#b" fill="#000" filter="url(#c)"/></g><g fill-rule="nonzero"><use xlink:href="#d" fill="#FFF"/><use xlink:href="#d" fill="#000" filter="url(#e)"/></g></g></svg>